<?xml version="1.0" standalone="no"?>
<!DOCTYPE svg PUBLIC "-//W3C//DTD SVG 20010904//EN"
 "http://www.w3.org/TR/2001/REC-SVG-20010904/DTD/svg10.dtd">
<svg version="1.0" xmlns="http://www.w3.org/2000/svg"
 width="2990.000000pt" height="2019.000000pt" viewBox="0 0 2990.000000 2019.000000"
 preserveAspectRatio="xMidYMid meet">

<g transform="translate(0.000000,2019.000000) scale(0.100000,-0.100000)"
fill="#000000" stroke="none">
<path d="M10650 15473 l0 -4713 4740 0 4740 0 0 43 c0 133 -62 661 -115 979
-310 1854 -1119 3558 -2373 4996 -187 215 -699 727 -914 914 -1243 1084 -2673
1830 -4253 2218 -534 131 -1110 224 -1610 260 -82 6 -165 12 -182 13 l-33 3 0
-4713z"/>
<path d="M9240 20169 c-2789 -241 -5319 -1592 -7055 -3768 -1261 -1582 -2020
-3520 -2171 -5548 l-7 -93 4712 0 4711 0 0 4710 0 4710 -47 -1 c-27 -1 -91 -5
-143 -10z"/>
<path d="M10644 9543 c20 -54 4202 -9523 4206 -9523 4 0 4212 9485 4228 9531
2 5 -390 8 -1004 7 l-1007 -3 -1103 -2535 c-607 -1394 -1107 -2543 -1112
-2554 -6 -14 -279 605 -1118 2538 l-1109 2556 -994 0 c-942 0 -993 -1 -987
-17z"/>
<path d="M19890 4890 l0 -4670 940 0 940 0 0 4670 0 4670 -940 0 -940 0 0
-4670z"/>
<path d="M22930 4890 l0 -4670 940 0 940 0 0 1400 0 1400 683 0 c375 0 771 5
879 10 725 35 1324 260 1883 706 146 117 392 359 522 514 266 317 476 710 592
1105 35 120 75 317 96 475 22 160 31 573 16 752 -57 673 -300 1263 -732 1778
-120 143 -372 390 -504 496 -541 430 -1123 651 -1825 694 -99 6 -834 10 -1827
10 l-1663 0 0 -4670z m3545 2783 c334 -79 617 -253 820 -506 210 -261 317
-559 317 -882 1 -603 -399 -1148 -982 -1339 -202 -66 -209 -66 -1057 -66
l-763 0 0 1411 0 1410 788 -4 c759 -3 790 -4 877 -24z"/>
<path d="M7 9483 c191 -2872 1558 -5487 3798 -7266 780 -620 1679 -1136 2610
-1497 880 -342 1799 -559 2735 -645 91 -8 191 -15 223 -15 l57 0 0 4740 0
4740 -4713 0 -4714 0 4 -57z"/>
</g>
</svg>
